<svg width="28" height="25" viewBox="0 0 28 25" fill="none" xmlns="http://www.w3.org/2000/svg">
<g clip-path="url(#clip0)">
<path d="M0.933333 -0.000976562C0.416889 -0.000976562 0 0.417773 0 0.936523C0 1.45527 0.416889 1.87402 0.933333 1.87402H4.03511C5.58133 5.71777 7.10267 9.56777 8.63333 13.4178L7.224 16.8272C7.10578 17.1115 7.14 17.4553 7.31111 17.7084C7.48222 17.9647 7.784 18.1271 8.092 18.124H23.6476C24.1391 18.1303 24.5933 17.6834 24.5933 17.1865C24.5933 16.6896 24.1391 16.2428 23.6476 16.249H9.48889L10.2947 14.3146L25.2778 13.1147C25.6698 13.0834 26.0244 12.7772 26.1147 12.3928L27.9813 4.26778C28.1027 3.72091 27.6267 3.12402 27.0667 3.12402H6.54267L5.53156 0.586525C5.39467 0.242775 5.03689 -0.000976562 4.66667 -0.000976562H0.933333ZM7.29244 4.99902H13.0667V7.81152H8.40933L7.29244 4.99902ZM14.9333 4.99902H18.6667V7.81152H14.9333V4.99902ZM20.5333 4.99902H25.8907L25.2498 7.81152H20.5333V4.99902ZM9.15911 9.68652H13.0667V12.2147L10.2573 12.4396L9.15911 9.68652ZM14.9333 9.68652H18.6667V11.7678L14.9333 12.0709V9.68652ZM20.5333 9.68652H24.8111L24.4409 11.3084L20.5333 11.6209V9.68652ZM11.2 18.749C9.492 18.749 8.08889 20.1584 8.08889 21.874C8.08889 23.5896 9.492 24.999 11.2 24.999C12.908 24.999 14.3111 23.5896 14.3111 21.874C14.3111 20.1584 12.908 18.749 11.2 18.749ZM20.5333 18.749C18.8253 18.749 17.4222 20.1584 17.4222 21.874C17.4222 23.5896 18.8253 24.999 20.5333 24.999C22.2413 24.999 23.6444 23.5896 23.6444 21.874C23.6444 20.1584 22.2413 18.749 20.5333 18.749ZM11.2 20.624C11.8969 20.624 12.4444 21.174 12.4444 21.874C12.4444 22.574 11.8969 23.124 11.2 23.124C10.5031 23.124 9.95555 22.574 9.95555 21.874C9.95555 21.174 10.5031 20.624 11.2 20.624ZM20.5333 20.624C21.2302 20.624 21.7778 21.174 21.7778 21.874C21.7778 22.574 21.2302 23.124 20.5333 23.124C19.8364 23.124 19.2889 22.574 19.2889 21.874C19.2889 21.174 19.8364 20.624 20.5333 20.624Z" fill="#474747"/>
</g>
<defs>
<clipPath id="clip0">
<rect width="28" height="25" fill="white"/>
</clipPath>
</defs>
</svg>
