<svg width="15" height="16" viewBox="0 0 15 16" fill="none" xmlns="http://www.w3.org/2000/svg">
<path d="M13.2812 0.1875H1.59375C0.697266 0.1875 0 0.917969 0 1.78125V13.4688C0 14.3652 0.697266 15.0625 1.59375 15.0625H6.14258V10.0156H4.05078V7.625H6.14258V5.83203C6.14258 3.77344 7.37109 2.61133 9.23047 2.61133C10.1602 2.61133 11.0898 2.77734 11.0898 2.77734V4.80273H10.0605C9.03125 4.80273 8.69922 5.43359 8.69922 6.09766V7.625H10.9902L10.625 10.0156H8.69922V15.0625H13.2812C14.1445 15.0625 14.875 14.3652 14.875 13.4688V1.78125C14.875 0.917969 14.1445 0.1875 13.2812 0.1875Z" fill="#FFC701"/>
</svg>
