<svg width="16" height="16" viewBox="0 0 16 16" fill="none" xmlns="http://www.w3.org/2000/svg">
<path d="M8.4375 3.80664C6.3125 3.80664 4.61914 5.5332 4.61914 7.625C4.61914 9.75 6.3125 11.4434 8.4375 11.4434C10.5293 11.4434 12.2559 9.75 12.2559 7.625C12.2559 5.5332 10.5293 3.80664 8.4375 3.80664ZM8.4375 10.1152C7.07617 10.1152 5.94727 9.01953 5.94727 7.625C5.94727 6.26367 7.04297 5.16797 8.4375 5.16797C9.79883 5.16797 10.8945 6.26367 10.8945 7.625C10.8945 9.01953 9.79883 10.1152 8.4375 10.1152ZM13.2852 3.67383C13.2852 3.17578 12.8867 2.77734 12.3887 2.77734C11.8906 2.77734 11.4922 3.17578 11.4922 3.67383C11.4922 4.17188 11.8906 4.57031 12.3887 4.57031C12.8867 4.57031 13.2852 4.17188 13.2852 3.67383ZM15.8086 4.57031C15.7422 3.375 15.4766 2.3125 14.6133 1.44922C13.75 0.585938 12.6875 0.320312 11.4922 0.253906C10.2637 0.1875 6.57812 0.1875 5.34961 0.253906C4.1543 0.320312 3.125 0.585938 2.22852 1.44922C1.36523 2.3125 1.09961 3.375 1.0332 4.57031C0.966797 5.79883 0.966797 9.48438 1.0332 10.7129C1.09961 11.9082 1.36523 12.9375 2.22852 13.834C3.125 14.6973 4.1543 14.9629 5.34961 15.0293C6.57812 15.0957 10.2637 15.0957 11.4922 15.0293C12.6875 14.9629 13.75 14.6973 14.6133 13.834C15.4766 12.9375 15.7422 11.9082 15.8086 10.7129C15.875 9.48438 15.875 5.79883 15.8086 4.57031ZM14.2148 12.0078C13.9824 12.6719 13.4512 13.1699 12.8203 13.4355C11.8242 13.834 9.5 13.7344 8.4375 13.7344C7.3418 13.7344 5.01758 13.834 4.05469 13.4355C3.39062 13.1699 2.89258 12.6719 2.62695 12.0078C2.22852 11.0449 2.32812 8.7207 2.32812 7.625C2.32812 6.5625 2.22852 4.23828 2.62695 3.24219C2.89258 2.61133 3.39062 2.11328 4.05469 1.84766C5.01758 1.44922 7.3418 1.54883 8.4375 1.54883C9.5 1.54883 11.8242 1.44922 12.8203 1.84766C13.4512 2.08008 13.9492 2.61133 14.2148 3.24219C14.6133 4.23828 14.5137 6.5625 14.5137 7.625C14.5137 8.7207 14.6133 11.0449 14.2148 12.0078Z" fill="#FFC701"/>
</svg>
