<?xml version="1.0" encoding="UTF-8" standalone="no"?>
<!DOCTYPE svg PUBLIC "-//W3C//DTD SVG 1.1//EN" "http://www.w3.org/Graphics/SVG/1.1/DTD/svg11.dtd">
<svg width="100%" height="100%" viewBox="0 0 21 21" version="1.1" xmlns="http://www.w3.org/2000/svg" xmlns:xlink="http://www.w3.org/1999/xlink" xml:space="preserve" xmlns:serif="http://www.serif.com/" style="fill-rule:evenodd;clip-rule:evenodd;stroke-linejoin:round;stroke-miterlimit:2;">
    <path d="M16.625,8.625L4.375,8.625C2.856,8.625 1.625,9.856 1.625,11.375C1.625,11.375 1.625,17.5 1.625,17.5C1.625,19.019 2.856,20.25 4.375,20.25L16.625,20.25C18.144,20.25 19.375,19.019 19.375,17.5L19.375,11.375C19.375,9.856 18.144,8.625 16.625,8.625ZM16.625,10.625C17.039,10.625 17.375,10.961 17.375,11.375C17.375,11.375 17.375,17.5 17.375,17.5C17.375,17.914 17.039,18.25 16.625,18.25C16.625,18.25 4.375,18.25 4.375,18.25C3.961,18.25 3.625,17.914 3.625,17.5L3.625,11.375C3.625,10.961 3.961,10.625 4.375,10.625L16.625,10.625Z" style="fill:rgb(255,199,1);"/>
    <path d="M7.125,9.625L7.125,6.125C7.125,5.23 7.481,4.371 8.114,3.739C8.746,3.106 9.605,2.75 10.5,2.75C11.395,2.75 12.254,3.106 12.887,3.739C13.519,4.371 13.875,5.23 13.875,6.125C13.875,6.125 13.875,9.625 13.875,9.625C13.875,10.177 14.323,10.625 14.875,10.625C15.427,10.625 15.875,10.177 15.875,9.625L15.875,6.125C15.875,4.699 15.309,3.332 14.301,2.324C13.293,1.316 11.926,0.75 10.5,0.75C9.074,0.75 7.707,1.316 6.699,2.324C5.691,3.332 5.125,4.699 5.125,6.125C5.125,6.125 5.125,9.625 5.125,9.625C5.125,10.177 5.573,10.625 6.125,10.625C6.677,10.625 7.125,10.177 7.125,9.625Z" style="fill:rgb(255,199,1);"/>
</svg>
