<svg width="30" height="31" viewBox="0 0 30 31" fill="none" xmlns="http://www.w3.org/2000/svg">
<g clip-path="url(#clip0)">
<path d="M29.804 19.556L26.0972 15.5L29.804 11.444C29.986 11.2449 30.0465 10.9649 29.9623 10.7101C29.8781 10.4553 29.6625 10.264 29.3966 10.2082L23.9779 9.07345L24.5569 3.64556C24.5853 3.37895 24.4672 3.11772 24.2472 2.96027C24.0272 2.80282 23.7386 2.77276 23.4898 2.88193L18.4291 5.10194L15.6591 0.37501C15.523 0.143069 15.2716 0 14.9997 0C14.7278 0 14.4762 0.143069 14.3404 0.37501L11.5703 5.10168L6.50959 2.88193C6.26113 2.77302 5.97252 2.80282 5.75221 2.96027C5.53217 3.11772 5.41407 3.37895 5.44249 3.64556L6.02153 9.07345L0.602869 10.2082C0.336681 10.264 0.121071 10.4553 0.0371218 10.7101C-0.0470885 10.9649 0.013397 11.2447 0.195375 11.444L3.90219 15.5L0.195114 19.556C0.0131362 19.7553 -0.0473492 20.0351 0.0368611 20.2899C0.120811 20.5447 0.336681 20.736 0.602609 20.7918L6.02127 21.9265L5.44223 27.3544C5.41381 27.6211 5.53191 27.8823 5.75195 28.0397C5.8844 28.1345 6.04135 28.1831 6.1996 28.1831C6.30467 28.1831 6.41025 28.1617 6.50933 28.1181L11.57 25.8981L14.3398 30.6247C14.4759 30.8569 14.7273 30.9997 14.9992 30.9997C15.2711 30.9997 15.5227 30.8567 15.6585 30.6247L18.4283 25.8981L23.4898 28.1183C23.5889 28.1617 23.6945 28.1833 23.7996 28.1833C23.9578 28.1833 24.115 28.1348 24.2472 28.04C24.4672 27.8825 24.5853 27.6213 24.5569 27.3547L23.9779 21.9268L29.3966 20.792C29.6627 20.7363 29.8783 20.5449 29.9623 20.2901C30.0462 20.0353 29.986 19.7553 29.804 19.556ZM23.2122 20.5529C22.9608 20.6055 22.7653 20.7748 22.6709 20.9908C22.4913 21.146 22.3883 21.3815 22.4152 21.6335L22.9045 26.2189L18.6291 24.3436C18.3945 24.2406 18.1353 24.2642 17.9299 24.3844C17.6921 24.406 17.4681 24.537 17.3396 24.7563L14.9997 28.7494L12.6595 24.7563C12.531 24.537 12.3073 24.4062 12.0696 24.3844C11.8644 24.2642 11.605 24.2406 11.3703 24.3436L7.09489 26.2189L7.58425 21.6335C7.6111 21.3818 7.50812 21.1462 7.32875 20.9908C7.23437 20.7745 7.03883 20.6053 6.78751 20.5526L2.20938 19.5943L5.34081 16.1678C5.51262 15.9796 5.56998 15.7294 5.51731 15.5C5.56998 15.2706 5.51262 15.0202 5.34081 14.8322L2.20938 11.4057L6.78725 10.4471C7.03857 10.3945 7.23411 10.2252 7.32849 10.0092C7.50786 9.85404 7.61084 9.6185 7.58399 9.36653L7.09489 4.78087L11.3703 6.65618C11.6052 6.75918 11.8646 6.73555 12.0698 6.61508C12.3073 6.59325 12.5313 6.46251 12.6595 6.24341L14.9994 2.25032L17.3393 6.24341C17.4679 6.46276 17.6918 6.59376 17.9296 6.61534C18.1348 6.73555 18.3942 6.75918 18.6288 6.65618L22.904 4.78087L22.4149 9.36627C22.3881 9.61799 22.491 9.85353 22.6704 10.0089C22.7648 10.2252 22.9603 10.3945 23.2117 10.4471L27.7893 11.4057L24.6578 14.8322C24.486 15.0204 24.4287 15.2706 24.4813 15.5C24.4287 15.7294 24.486 15.9798 24.6578 16.1678L27.7893 19.5943L23.2122 20.5529Z" fill="#FFC701"/>
</g>
<defs>
<clipPath id="clip0">
<rect width="30" height="31" fill="white"/>
</clipPath>
</defs>
</svg>
