<?xml version="1.0" encoding="UTF-8" standalone="no"?>
<!DOCTYPE svg PUBLIC "-//W3C//DTD SVG 1.1//EN" "http://www.w3.org/Graphics/SVG/1.1/DTD/svg11.dtd">
<svg width="100%" height="100%" viewBox="0 0 30 31" version="1.1" xmlns="http://www.w3.org/2000/svg" xmlns:xlink="http://www.w3.org/1999/xlink" xml:space="preserve" xmlns:serif="http://www.serif.com/" style="fill-rule:evenodd;clip-rule:evenodd;stroke-linejoin:round;stroke-miterlimit:2;">
    <path d="M29.804,19.556L26.097,15.5L29.804,11.444C29.986,11.245 30.047,10.965 29.962,10.71C29.878,10.455 29.663,10.264 29.397,10.208L23.978,9.073L24.557,3.646C24.585,3.379 24.467,3.118 24.247,2.96C24.027,2.803 23.739,2.773 23.49,2.882L18.429,5.102L15.659,0.375C15.523,0.143 15.272,0 15,0C14.728,0 14.476,0.143 14.34,0.375L11.57,5.102L6.51,2.882C6.261,2.773 5.973,2.803 5.752,2.96C5.532,3.118 5.414,3.379 5.442,3.646L6.022,9.073L0.603,10.208C0.337,10.264 0.121,10.455 0.037,10.71C-0.047,10.965 0.013,11.245 0.195,11.444L3.902,15.5L0.195,19.556C0.013,19.755 -0.047,20.035 0.037,20.29C0.121,20.545 0.337,20.736 0.603,20.792L6.021,21.927L5.442,27.354C5.414,27.621 5.532,27.882 5.752,28.04C5.884,28.135 6.041,28.183 6.2,28.183C6.305,28.183 6.41,28.162 6.509,28.118L11.57,25.898L14.34,30.625C14.476,30.857 14.727,31 14.999,31C15.271,31 15.523,30.857 15.659,30.625L18.428,25.898L23.49,28.118C23.589,28.162 23.695,28.183 23.8,28.183C23.958,28.183 24.115,28.135 24.247,28.04C24.467,27.883 24.585,27.621 24.557,27.355L23.978,21.927L29.397,20.792C29.663,20.736 29.878,20.545 29.962,20.29C30.046,20.035 29.986,19.755 29.804,19.556ZM23.212,20.553C22.961,20.606 22.765,20.775 22.671,20.991C22.491,21.146 22.388,21.382 22.415,21.634L22.905,26.219L18.629,24.344C18.395,24.241 18.135,24.264 17.93,24.384C17.692,24.406 17.468,24.537 17.34,24.756L15,28.749L12.66,24.756C12.531,24.537 12.307,24.406 12.07,24.384C11.864,24.264 11.605,24.241 11.37,24.344L7.095,26.219L7.584,21.634C7.611,21.382 7.508,21.146 7.329,20.991C7.234,20.775 7.039,20.605 6.788,20.553L2.209,19.594L5.341,16.168C5.513,15.98 5.57,15.729 5.517,15.5C5.57,15.271 5.513,15.02 5.341,14.832L2.209,11.406L6.787,10.447C7.039,10.395 7.234,10.225 7.328,10.009C7.508,9.854 7.611,9.618 7.584,9.367L7.095,4.781L11.37,6.656C11.605,6.759 11.865,6.736 12.07,6.615C12.307,6.593 12.531,6.463 12.66,6.243L14.999,2.25L17.339,6.243C17.468,6.463 17.692,6.594 17.93,6.615C18.135,6.736 18.394,6.759 18.629,6.656L22.904,4.781L22.415,9.366C22.388,9.618 22.491,9.854 22.67,10.009C22.765,10.225 22.96,10.395 23.212,10.447L27.789,11.406L24.658,14.832C24.486,15.02 24.429,15.271 24.481,15.5C24.429,15.729 24.486,15.98 24.658,16.168L27.789,19.594L23.212,20.553Z" style="fill:rgb(255,199,1);fill-rule:nonzero;"/>
</svg>
