<svg width="17" height="15" viewBox="0 0 17 15" fill="none" xmlns="http://www.w3.org/2000/svg">
<path d="M15.2402 4.17188C15.9043 3.67383 16.502 3.07617 16.9668 2.37891C16.3691 2.64453 15.6719 2.84375 14.9746 2.91016C15.7051 2.47852 16.2363 1.81445 16.502 0.984375C15.8379 1.38281 15.0742 1.68164 14.3105 1.84766C13.6465 1.15039 12.75 0.751953 11.7539 0.751953C9.82812 0.751953 8.26758 2.3125 8.26758 4.23828C8.26758 4.50391 8.30078 4.76953 8.36719 5.03516C5.47852 4.86914 2.88867 3.47461 1.16211 1.38281C0.863281 1.88086 0.697266 2.47852 0.697266 3.14258C0.697266 4.33789 1.29492 5.40039 2.25781 6.03125C1.69336 5.99805 1.12891 5.86523 0.664062 5.59961V5.63281C0.664062 7.32617 1.85938 8.7207 3.45312 9.05273C3.1875 9.11914 2.85547 9.18555 2.55664 9.18555C2.32422 9.18555 2.125 9.15234 1.89258 9.11914C2.32422 10.5137 3.61914 11.5098 5.14648 11.543C3.95117 12.4727 2.45703 13.0371 0.830078 13.0371C0.53125 13.0371 0.265625 13.0039 0 12.9707C1.52734 13.9668 3.35352 14.5312 5.3457 14.5312C11.7539 14.5312 15.2402 9.25195 15.2402 4.63672C15.2402 4.4707 15.2402 4.33789 15.2402 4.17188Z" fill="#FFC701"/>
</svg>
