<?xml version="1.0" encoding="UTF-8" standalone="no"?>
<!DOCTYPE svg PUBLIC "-//W3C//DTD SVG 1.1//EN" "http://www.w3.org/Graphics/SVG/1.1/DTD/svg11.dtd">
<svg width="100%" height="100%" viewBox="0 0 24 23" version="1.1" xmlns="http://www.w3.org/2000/svg" xmlns:xlink="http://www.w3.org/1999/xlink" xml:space="preserve" xmlns:serif="http://www.serif.com/" style="fill-rule:evenodd;clip-rule:evenodd;stroke-linejoin:round;stroke-miterlimit:2;">
    <path d="M21,20.125L21,18.208C21,16.921 20.47,15.686 19.52,14.776C18.586,13.881 17.321,13.375 16,13.375L8,13.375C6.679,13.375 5.414,13.881 4.48,14.776C3.53,15.686 3,16.921 3,18.208L3,20.125C3,20.677 3.448,21.125 4,21.125C4.552,21.125 5,20.677 5,20.125L5,18.208C5,17.462 5.313,16.748 5.863,16.22C5.863,16.22 5.863,16.22 5.863,16.22C6.43,15.677 7.199,15.375 8,15.375C8,15.375 16,15.375 16,15.375C16.801,15.375 17.57,15.677 18.136,16.22C18.137,16.22 18.137,16.22 18.137,16.22C18.687,16.748 19,17.462 19,18.208C19,18.208 19,20.125 19,20.125C19,20.677 19.448,21.125 20,21.125C20.552,21.125 21,20.677 21,20.125ZM12,11.542C14.773,11.542 17,9.366 17,6.708C17,4.051 14.773,1.875 12,1.875C9.227,1.875 7,4.051 7,6.708C7,9.366 9.227,11.542 12,11.542ZM12,9.542C10.355,9.542 9,8.285 9,6.708C9,5.131 10.355,3.875 12,3.875C13.645,3.875 15,5.131 15,6.708C15,8.285 13.645,9.542 12,9.542Z" style="fill:rgb(234,184,9);"/>
</svg>
