<svg width="28" height="25" fill="none" xmlns="http://www.w3.org/2000/svg"><g clip-path="url(#clip0)"><path d="M.933-.001A.934.934 0 000 .937c0 .518.417.937.933.937h3.102c1.546 3.844 3.068 7.694 4.598 11.544l-1.409 3.41a.953.953 0 00.087.88.944.944 0 00.781.416h15.556c.491.006.945-.44.945-.938 0-.496-.454-.943-.945-.937H9.488l.807-1.934 14.983-1.2a.964.964 0 00.837-.722l1.866-8.125c.122-.547-.354-1.144-.914-1.144H6.543L5.532.587a.955.955 0 00-.865-.588H.933zm6.36 5h5.774v2.813H8.409L7.292 4.999zm7.64 0h3.734v2.813h-3.734V4.999zm5.6 0h5.358l-.641 2.813h-4.717V4.999zM9.16 9.687h3.908v2.528l-2.81.225L9.16 9.687zm5.774 0h3.734v2.08l-3.734.304V9.687zm5.6 0h4.278l-.37 1.621-3.908.313V9.687zM11.2 18.749c-1.708 0-3.111 1.41-3.111 3.125 0 1.716 1.403 3.125 3.111 3.125 1.708 0 3.111-1.41 3.111-3.125 0-1.716-1.403-3.125-3.111-3.125zm9.333 0c-1.708 0-3.11 1.41-3.11 3.125 0 1.716 1.402 3.125 3.11 3.125s3.111-1.41 3.111-3.125c0-1.716-1.403-3.125-3.11-3.125zM11.2 20.624c.697 0 1.244.55 1.244 1.25s-.547 1.25-1.244 1.25-1.244-.55-1.244-1.25.547-1.25 1.244-1.25zm9.333 0c.697 0 1.245.55 1.245 1.25s-.548 1.25-1.245 1.25c-.697 0-1.244-.55-1.244-1.25s.547-1.25 1.244-1.25z" fill="#474747"/></g><defs><clipPath id="clip0"><path fill="#fff" d="M0 0h28v25H0z"/></clipPath></defs></svg>