<svg width="16" height="16" fill="none" xmlns="http://www.w3.org/2000/svg"><path d="M8.438 3.807a3.819 3.819 0 00-3.819 3.818 3.798 3.798 0 003.819 3.818 3.819 3.819 0 003.818-3.818c0-2.092-1.727-3.818-3.819-3.818zm0 6.308a2.487 2.487 0 01-2.49-2.49c0-1.361 1.095-2.457 2.49-2.457a2.451 2.451 0 012.457 2.457c0 1.395-1.096 2.49-2.457 2.49zm4.847-6.441a.893.893 0 00-.896-.897.893.893 0 00-.897.897c0 .498.399.896.897.896a.893.893 0 00.896-.896zm2.524.896c-.067-1.195-.332-2.258-1.196-3.12C13.75.585 12.688.32 11.493.253c-1.23-.067-4.915-.067-6.143 0C4.154.32 3.125.586 2.229 1.449c-.864.863-1.13 1.926-1.196 3.121-.066 1.229-.066 4.914 0 6.143.067 1.195.332 2.225 1.196 3.121.896.863 1.925 1.129 3.12 1.195 1.23.067 4.915.067 6.143 0 1.195-.066 2.258-.332 3.121-1.195.864-.896 1.13-1.926 1.196-3.121.066-1.229.066-4.914 0-6.143zm-1.594 7.438c-.233.664-.764 1.162-1.395 1.428-.996.398-3.32.298-4.383.298-1.095 0-3.42.1-4.382-.299a2.517 2.517 0 01-1.428-1.427c-.398-.963-.299-3.287-.299-4.383 0-1.063-.1-3.387.299-4.383a2.561 2.561 0 011.428-1.394c.963-.399 3.287-.3 4.383-.3 1.062 0 3.386-.099 4.382.3.631.232 1.13.763 1.395 1.394.398.996.299 3.32.299 4.383 0 1.096.1 3.42-.3 4.383z" fill="#FFC701"/></svg>