<svg viewBox="0 0 21 21" xmlns="http://www.w3.org/2000/svg" fill-rule="evenodd" clip-rule="evenodd" stroke-linejoin="round" stroke-miterlimit="2"><path d="M16.625 8.625H4.375a2.75 2.75 0 00-2.75 2.75V17.5a2.75 2.75 0 002.75 2.75h12.25a2.75 2.75 0 002.75-2.75v-6.125a2.75 2.75 0 00-2.75-2.75zm0 2a.75.75 0 01.75.75V17.5a.75.75 0 01-.75.75H4.375a.75.75 0 01-.75-.75v-6.125a.75.75 0 01.75-.75h12.25z" fill="#ffc701"/><path d="M7.125 9.625v-3.5A3.373 3.373 0 0110.5 2.75a3.377 3.377 0 013.375 3.375v3.5a1 1 0 002 0v-3.5a5.375 5.375 0 10-10.75 0v3.5a1 1 0 002 0z" fill="#ffc701"/></svg>