<svg viewBox="0 0 30 31" xmlns="http://www.w3.org/2000/svg" fill-rule="evenodd" clip-rule="evenodd" stroke-linejoin="round" stroke-miterlimit="2"><path d="M29.804 19.556L26.097 15.5l3.707-4.056a.74.74 0 00.158-.734.757.757 0 00-.565-.502l-5.419-1.135.579-5.427a.748.748 0 00-.31-.686.772.772 0 00-.757-.078l-5.061 2.22-2.77-4.727A.763.763 0 0015 0a.765.765 0 00-.66.375l-2.77 4.727-5.06-2.22a.774.774 0 00-.758.078.748.748 0 00-.31.686l.58 5.427-5.419 1.135a.758.758 0 00-.566.502.742.742 0 00.158.734L3.902 15.5.195 19.556a.742.742 0 00-.158.734c.084.255.3.446.566.502l5.418 1.135-.579 5.427a.748.748 0 00.31.686.765.765 0 00.757.078l5.061-2.22 2.77 4.727a.763.763 0 00.659.375.765.765 0 00.66-.375l2.769-4.727 5.062 2.22a.763.763 0 00.757-.078.746.746 0 00.31-.685l-.579-5.428 5.419-1.135a.757.757 0 00.565-.502.742.742 0 00-.158-.734zm-6.592.997a.758.758 0 00-.541.438.742.742 0 00-.256.643l.49 4.585-4.276-1.875a.77.77 0 00-.699.04.762.762 0 00-.59.372L15 28.749l-2.34-3.993a.765.765 0 00-.59-.372.772.772 0 00-.7-.04l-4.275 1.875.489-4.585a.744.744 0 00-.255-.643.758.758 0 00-.541-.438l-4.579-.959 3.132-3.426a.74.74 0 00.176-.668.74.74 0 00-.176-.668l-3.132-3.426 4.578-.959a.754.754 0 00.541-.438.742.742 0 00.256-.642l-.489-4.586 4.275 1.875a.77.77 0 00.7-.041.762.762 0 00.59-.372l2.339-3.993 2.34 3.993a.76.76 0 00.591.372.767.767 0 00.699.041l4.275-1.875-.489 4.585a.744.744 0 00.255.643c.095.216.29.386.542.438l4.577.959-3.131 3.426a.744.744 0 00-.177.668.744.744 0 00.177.668l3.131 3.426-4.577.959z" fill="#ffc701" fill-rule="nonzero"/></svg>