<svg width="17" height="15" fill="none" xmlns="http://www.w3.org/2000/svg"><path d="M15.24 4.172a7.383 7.383 0 001.727-1.793 6.535 6.535 0 01-1.992.531A3.406 3.406 0 0016.502.984a7.364 7.364 0 01-2.191.864A3.486 3.486 0 0011.753.752a3.486 3.486 0 00-3.486 3.486c0 .266.033.532.1.797a10.115 10.115 0 01-7.206-3.652 3.391 3.391 0 00-.465 1.76 3.43 3.43 0 001.56 2.888C1.694 5.998 1.13 5.865.665 5.6v.033a3.49 3.49 0 002.79 3.42 3.892 3.892 0 01-.897.133c-.233 0-.432-.034-.664-.067a3.47 3.47 0 003.253 2.424A7.01 7.01 0 01.83 13.037c-.299 0-.564-.033-.83-.066 1.527.996 3.354 1.56 5.346 1.56 6.408 0 9.894-5.279 9.894-9.894v-.465z" fill="#FFC701"/></svg>