<svg viewBox="0 0 24 23" xmlns="http://www.w3.org/2000/svg" fill-rule="evenodd" clip-rule="evenodd" stroke-linejoin="round" stroke-miterlimit="2"><path d="M21 20.125v-1.917a4.75 4.75 0 00-1.48-3.432A5.091 5.091 0 0016 13.375H8a5.091 5.091 0 00-3.52 1.401A4.75 4.75 0 003 18.208v1.917a1 1 0 002 0v-1.917c0-.746.313-1.46.863-1.988A3.09 3.09 0 018 15.375h8c.801 0 1.57.302 2.136.845h.001c.55.528.863 1.242.863 1.988v1.917a1 1 0 002 0zm-9-8.583c2.773 0 5-2.176 5-4.834 0-2.657-2.227-4.833-5-4.833S7 4.051 7 6.708c0 2.658 2.227 4.834 5 4.834zm0-2c-1.645 0-3-1.257-3-2.834 0-1.577 1.355-2.833 3-2.833s3 1.256 3 2.833c0 1.577-1.355 2.834-3 2.834z" fill="#eab809"/></svg>