<svg class="svg-sprites" id="skin-sprite" xmlns="http://www.w3.org/2000/svg" xmlns:xlink="http://www.w3.org/1999/xlink">
	<symbol viewBox="0 0 24 24" fill-rule="evenodd" clip-rule="evenodd" stroke-linejoin="round" stroke-miterlimit="2" id="z-card" xmlns="http://www.w3.org/2000/svg"><path d="M21 3H3a3 3 0 00-3 3v12a3 3 0 003 3h18a3 3 0 003-3V6a3 3 0 00-3-3zm1 8v7a1 1 0 01-1 1H3a1 1 0 01-1-1v-7h20zm0-2H2V6a1 1 0 011-1h18a1 1 0 011 1v3z" fill="currentColor"/></symbol>
	<symbol viewBox="0 0 28 25" id="z-cart" xmlns="http://www.w3.org/2000/svg"><g clip-path="url(#bclip0)"><path d="M.933-.001A.934.934 0 000 .937c0 .518.417.937.933.937h3.102c1.546 3.844 3.068 7.694 4.598 11.544l-1.409 3.41a.953.953 0 00.087.88.944.944 0 00.781.416h15.556c.491.006.945-.44.945-.938 0-.496-.454-.943-.945-.937H9.488l.807-1.934 14.983-1.2a.964.964 0 00.837-.722l1.866-8.125c.122-.547-.354-1.144-.914-1.144H6.543L5.532.587a.955.955 0 00-.865-.588H.933zm6.36 5h5.774v2.813H8.409L7.292 4.999zm7.64 0h3.734v2.813h-3.734V4.999zm5.6 0h5.358l-.641 2.813h-4.717V4.999zM9.16 9.687h3.908v2.528l-2.81.225L9.16 9.687zm5.774 0h3.734v2.08l-3.734.304V9.687zm5.6 0h4.278l-.37 1.621-3.908.313V9.687zM11.2 18.749c-1.708 0-3.111 1.41-3.111 3.125 0 1.716 1.403 3.125 3.111 3.125 1.708 0 3.111-1.41 3.111-3.125 0-1.716-1.403-3.125-3.111-3.125zm9.333 0c-1.708 0-3.11 1.41-3.11 3.125 0 1.716 1.402 3.125 3.11 3.125s3.111-1.41 3.111-3.125c0-1.716-1.403-3.125-3.11-3.125zM11.2 20.624c.697 0 1.244.55 1.244 1.25s-.547 1.25-1.244 1.25-1.244-.55-1.244-1.25.547-1.25 1.244-1.25zm9.333 0c.697 0 1.245.55 1.245 1.25s-.548 1.25-1.245 1.25c-.697 0-1.244-.55-1.244-1.25s.547-1.25 1.244-1.25z" fill="currentColor"/></g><defs><clipPath id="bclip0"><path fill="currentColor" d="M0 0h28v25H0z"/></clipPath></defs></symbol>
	<symbol viewBox="0 0 8 6" id="z-down" xmlns="http://www.w3.org/2000/svg"><path d="M4.072 4.959a.506.506 0 00.71 0l2.921-2.922c.215-.215.215-.537 0-.73L7.23.813a.532.532 0 00-.73 0L4.416 2.896 2.354.813a.532.532 0 00-.731 0l-.473.494c-.214.193-.214.515 0 .73L4.072 4.96z" fill="currentColor"/></symbol>
	<symbol viewBox="0 0 15 16" id="z-facebook" xmlns="http://www.w3.org/2000/svg"><path d="M13.281.188H1.594C.697.188 0 .917 0 1.78v11.69c0 .896.697 1.594 1.594 1.594h4.549v-5.047H4.05V7.625h2.092V5.832c0-2.059 1.228-3.22 3.087-3.22.93 0 1.86.165 1.86.165v2.026h-1.03c-1.029 0-1.36.63-1.36 1.295v1.527h2.29l-.365 2.39H8.699v5.047h4.582c.864 0 1.594-.697 1.594-1.593V1.78c0-.863-.73-1.593-1.594-1.593z" fill="currentColor"/></symbol>
	<symbol viewBox="0 0 16 16" id="z-instagram" xmlns="http://www.w3.org/2000/svg"><path d="M8.438 3.807a3.819 3.819 0 00-3.819 3.818 3.798 3.798 0 003.819 3.818 3.819 3.819 0 003.818-3.818c0-2.092-1.727-3.818-3.819-3.818zm0 6.308a2.487 2.487 0 01-2.49-2.49c0-1.361 1.095-2.457 2.49-2.457a2.451 2.451 0 012.457 2.457c0 1.395-1.096 2.49-2.457 2.49zm4.847-6.441a.893.893 0 00-.896-.897.893.893 0 00-.897.897c0 .498.399.896.897.896a.893.893 0 00.896-.896zm2.524.896c-.067-1.195-.332-2.258-1.196-3.12C13.75.585 12.688.32 11.493.253c-1.23-.067-4.915-.067-6.143 0C4.154.32 3.125.586 2.229 1.449c-.864.863-1.13 1.926-1.196 3.121-.066 1.229-.066 4.914 0 6.143.067 1.195.332 2.225 1.196 3.121.896.863 1.925 1.129 3.12 1.195 1.23.067 4.915.067 6.143 0 1.195-.066 2.258-.332 3.121-1.195.864-.896 1.13-1.926 1.196-3.121.066-1.229.066-4.914 0-6.143zm-1.594 7.438c-.233.664-.764 1.162-1.395 1.428-.996.398-3.32.298-4.383.298-1.095 0-3.42.1-4.382-.299a2.517 2.517 0 01-1.428-1.427c-.398-.963-.299-3.287-.299-4.383 0-1.063-.1-3.387.299-4.383a2.561 2.561 0 011.428-1.394c.963-.399 3.287-.3 4.383-.3 1.062 0 3.386-.099 4.382.3.631.232 1.13.763 1.395 1.394.398.996.299 3.32.299 4.383 0 1.096.1 3.42-.3 4.383z" fill="currentColor"/></symbol>
	<symbol viewBox="0 0 21 21" fill-rule="evenodd" clip-rule="evenodd" stroke-linejoin="round" stroke-miterlimit="2" id="z-lock" xmlns="http://www.w3.org/2000/svg"><path d="M16.625 8.625H4.375a2.75 2.75 0 00-2.75 2.75V17.5a2.75 2.75 0 002.75 2.75h12.25a2.75 2.75 0 002.75-2.75v-6.125a2.75 2.75 0 00-2.75-2.75zm0 2a.75.75 0 01.75.75V17.5a.75.75 0 01-.75.75H4.375a.75.75 0 01-.75-.75v-6.125a.75.75 0 01.75-.75h12.25z" fill="currentColor"/><path d="M7.125 9.625v-3.5A3.373 3.373 0 0110.5 2.75a3.377 3.377 0 013.375 3.375v3.5a1 1 0 002 0v-3.5a5.375 5.375 0 10-10.75 0v3.5a1 1 0 002 0z" fill="currentColor"/></symbol>
	<symbol viewBox="0 0 12 16" id="z-map" xmlns="http://www.w3.org/2000/svg"><path d="M5.04 15.582c.263.41.878.41 1.142 0C10.459 9.43 11.25 8.785 11.25 6.5A5.626 5.626 0 005.625.875 5.608 5.608 0 000 6.5c0 2.285.762 2.93 5.04 9.082zm.585-6.738A2.314 2.314 0 013.281 6.5a2.332 2.332 0 012.344-2.344A2.35 2.35 0 017.969 6.5a2.332 2.332 0 01-2.344 2.344z" fill="currentColor"/></symbol>
	<symbol viewBox="0 0 10 16" id="z-next" xmlns="http://www.w3.org/2000/svg"><path d="M10 8l-7.941 8L0 13.926 5.882 8 0 2.074 2.059 0 10 8z" fill="currentColor"/></symbol>
	<symbol viewBox="0 0 10 16" id="z-prev" xmlns="http://www.w3.org/2000/svg"><path d="M0 8l7.941-8L10 2.074 4.118 8 10 13.926 7.941 16 0 8z" fill="currentColor"/></symbol>
	<symbol viewBox="0 0 17 18" id="z-search" xmlns="http://www.w3.org/2000/svg"><path d="M11.571 7.929c0 2.48-2.019 4.5-4.5 4.5a4.505 4.505 0 01-4.5-4.5c0-2.481 2.02-4.5 4.5-4.5 2.481 0 4.5 2.019 4.5 4.5zm5.143 8.357c0-.342-.14-.673-.371-.904l-3.446-3.446a7.055 7.055 0 001.246-4.007A7.069 7.069 0 007.07.857 7.069 7.069 0 000 7.93 7.069 7.069 0 007.071 15a7.055 7.055 0 004.008-1.245l3.446 3.435c.23.24.562.381.904.381.703 0 1.285-.582 1.285-1.285z" fill="currentColor"/></symbol>
	<symbol viewBox="0 0 30 31" fill-rule="evenodd" clip-rule="evenodd" stroke-linejoin="round" stroke-miterlimit="2" id="z-star" xmlns="http://www.w3.org/2000/svg"><path d="M29.804 19.556L26.097 15.5l3.707-4.056a.74.74 0 00.158-.734.757.757 0 00-.565-.502l-5.419-1.135.579-5.427a.748.748 0 00-.31-.686.772.772 0 00-.757-.078l-5.061 2.22-2.77-4.727A.763.763 0 0015 0a.765.765 0 00-.66.375l-2.77 4.727-5.06-2.22a.774.774 0 00-.758.078.748.748 0 00-.31.686l.58 5.427-5.419 1.135a.758.758 0 00-.566.502.742.742 0 00.158.734L3.902 15.5.195 19.556a.742.742 0 00-.158.734c.084.255.3.446.566.502l5.418 1.135-.579 5.427a.748.748 0 00.31.686.765.765 0 00.757.078l5.061-2.22 2.77 4.727a.763.763 0 00.659.375.765.765 0 00.66-.375l2.769-4.727 5.062 2.22a.763.763 0 00.757-.078.746.746 0 00.31-.685l-.579-5.428 5.419-1.135a.757.757 0 00.565-.502.742.742 0 00-.158-.734zm-6.592.997a.758.758 0 00-.541.438.742.742 0 00-.256.643l.49 4.585-4.276-1.875a.77.77 0 00-.699.04.762.762 0 00-.59.372L15 28.749l-2.34-3.993a.765.765 0 00-.59-.372.772.772 0 00-.7-.04l-4.275 1.875.489-4.585a.744.744 0 00-.255-.643.758.758 0 00-.541-.438l-4.579-.959 3.132-3.426a.74.74 0 00.176-.668.74.74 0 00-.176-.668l-3.132-3.426 4.578-.959a.754.754 0 00.541-.438.742.742 0 00.256-.642l-.489-4.586 4.275 1.875a.77.77 0 00.7-.041.762.762 0 00.59-.372l2.339-3.993 2.34 3.993a.76.76 0 00.591.372.767.767 0 00.699.041l4.275-1.875-.489 4.585a.744.744 0 00.255.643c.095.216.29.386.542.438l4.577.959-3.131 3.426a.744.744 0 00-.177.668.744.744 0 00.177.668l3.131 3.426-4.577.959z" fill="currentColor" fill-rule="nonzero"/></symbol>
	<symbol viewBox="0 0 24 24" fill-rule="evenodd" clip-rule="evenodd" stroke-linejoin="round" stroke-miterlimit="2" id="z-truck" xmlns="http://www.w3.org/2000/svg"><path d="M2.337 17a3.5 3.5 0 106.326 0h6.674a3.5 3.5 0 106.326 0H23a1 1 0 001-1v-5a.997.997 0 00-.293-.707l-3-3A.997.997 0 0020 7h-3V3a1 1 0 00-1-1H1a1 1 0 00-1 1v13a1 1 0 001 1h1.337zM5.5 20a1.5 1.5 0 11.001-3.001A1.5 1.5 0 015.5 20zm13 0a1.5 1.5 0 11.001-3.001A1.5 1.5 0 0118.5 20zM17 9h2.586L22 11.414V15h-5V9zm-2-5v11H2V4h13z" fill="currentColor"/></symbol>
	<symbol viewBox="0 0 17 15" id="z-twitter" xmlns="http://www.w3.org/2000/svg"><path d="M15.24 4.172a7.383 7.383 0 001.727-1.793 6.535 6.535 0 01-1.992.531A3.406 3.406 0 0016.502.984a7.364 7.364 0 01-2.191.864A3.486 3.486 0 0011.753.752a3.486 3.486 0 00-3.486 3.486c0 .266.033.532.1.797a10.115 10.115 0 01-7.206-3.652 3.391 3.391 0 00-.465 1.76 3.43 3.43 0 001.56 2.888C1.694 5.998 1.13 5.865.665 5.6v.033a3.49 3.49 0 002.79 3.42 3.892 3.892 0 01-.897.133c-.233 0-.432-.034-.664-.067a3.47 3.47 0 003.253 2.424A7.01 7.01 0 01.83 13.037c-.299 0-.564-.033-.83-.066 1.527.996 3.354 1.56 5.346 1.56 6.408 0 9.894-5.279 9.894-9.894v-.465z" fill="currentColor"/></symbol>
	<symbol viewBox="0 0 24 23" fill-rule="evenodd" clip-rule="evenodd" stroke-linejoin="round" stroke-miterlimit="2" id="z-user" xmlns="http://www.w3.org/2000/svg"><path d="M21 20.125v-1.917a4.75 4.75 0 00-1.48-3.432A5.091 5.091 0 0016 13.375H8a5.091 5.091 0 00-3.52 1.401A4.75 4.75 0 003 18.208v1.917a1 1 0 002 0v-1.917c0-.746.313-1.46.863-1.988A3.09 3.09 0 018 15.375h8c.801 0 1.57.302 2.136.845h.001c.55.528.863 1.242.863 1.988v1.917a1 1 0 002 0zm-9-8.583c2.773 0 5-2.176 5-4.834 0-2.657-2.227-4.833-5-4.833S7 4.051 7 6.708c0 2.658 2.227 4.834 5 4.834zm0-2c-1.645 0-3-1.257-3-2.834 0-1.577 1.355-2.833 3-2.833s3 1.256 3 2.833c0 1.577-1.355 2.834-3 2.834z" fill="currentColor"/></symbol>
	<symbol viewBox="0 0 20 20" id="z-whatsapp" xmlns="http://www.w3.org/2000/svg"><path d="M16.328 2.96A9.386 9.386 0 009.582.126C4.34.125.043 4.422.043 9.665a9.55 9.55 0 001.289 4.769L0 19.375l5.027-1.29c1.418.731 2.965 1.161 4.555 1.161 5.285 0 9.668-4.297 9.668-9.539 0-2.578-1.117-4.941-2.922-6.746zM9.582 17.614a7.947 7.947 0 01-4.039-1.117l-.258-.172-3.008.817.817-2.922-.215-.301a8.266 8.266 0 01-1.203-4.254c0-4.34 3.566-7.906 7.949-7.906 2.105 0 4.082.816 5.586 2.32 1.504 1.504 2.406 3.48 2.406 5.629 0 4.34-3.652 7.906-8.035 7.906zm4.383-5.93a53.059 53.059 0 00-1.633-.773c-.215-.086-.387-.129-.559.13-.128.214-.601.773-.73.944-.172.13-.3.172-.516.043-1.418-.687-2.32-1.246-3.265-2.836-.258-.43.258-.386.687-1.289.086-.172.043-.3 0-.43-.043-.128-.558-1.288-.73-1.761-.215-.473-.387-.43-.559-.43h-.43a.806.806 0 00-.644.301c-.215.258-.816.816-.816 1.977 0 1.203.816 2.32.945 2.492.129.129 1.676 2.535 4.082 3.566 1.504.688 2.105.73 2.879.602.43-.043 1.375-.559 1.59-1.117.214-.559.214-1.032.129-1.118-.043-.129-.215-.171-.43-.3z" fill="currentColor"/></symbol>
	<symbol viewBox="0 0 16 8" id="z-equal" xmlns="http://www.w3.org/2000/svg"><path fill-rule="evenodd" clip-rule="evenodd" d="M16 0H0v2h16V0zm0 6H0v2h16V6z" fill="currentColor"/></symbol>
	<symbol viewBox="0 0 16 16" id="z-more" xmlns="http://www.w3.org/2000/svg"><path fill-rule="evenodd" clip-rule="evenodd" d="M9 0H7v7H0v2h7v7h2V9h7V7H9V0z" fill="currentColor"/></symbol>
</svg>